<?xml version="1.0" ?><svg enable-background="new 0 0 512 512" id="Layer_1" version="1.1" viewBox="0 0 512 512" xml:space="preserve" xmlns="http://www.w3.org/2000/svg" xmlns:xlink="http://www.w3.org/1999/xlink"><g><g><linearGradient gradientUnits="userSpaceOnUse" id="SVGID_1_" x1="0.0000038" x2="512" y1="256" y2="256"><stop offset="0" style="stop-color:#E24263"/><stop offset="1" style="stop-color:#DD1E47"/></linearGradient><circle cx="256" cy="256" fill="url(#SVGID_1_)" r="256"/><linearGradient gradientUnits="userSpaceOnUse" id="SVGID_2_" x1="42.6666679" x2="469.3333435" y1="256.0005188" y2="256.0005188"><stop offset="0" style="stop-color:#DD1E47"/><stop offset="1" style="stop-color:#E24263"/></linearGradient><path d="M256,469.3338623c-117.6314697,0-213.3333282-95.7018738-213.3333282-213.3333435    c0-117.6309204,95.7018585-213.333313,213.3333282-213.333313c117.6357422,0,213.3333435,95.7024002,213.3333435,213.333313    C469.3333435,373.6319885,373.6357422,469.3338623,256,469.3338623z" fill="url(#SVGID_2_)"/></g><path d="M264,144c-66.2741394,0-120,53.7258606-120,120c0,66.2730713,53.7258606,120,120,120   c66.2735901,0,120-53.7269287,120-120C384,197.7258606,330.2735901,144,264,144z M240.3200073,318.4303894l-50.8938751-50.8938599   l7.0709381-7.0704041l43.822937,43.8234863l91.1813354-91.1818848l7.0704041,7.0704041L240.3200073,318.4303894z" opacity="0.3"/><path d="M256,136c-66.2741394,0-120,53.7258606-120,120c0,66.2730713,53.7258606,120,120,120   c66.2735901,0,120-53.7269287,120-120C376,189.7258606,322.2735901,136,256,136z M232.3200073,310.4303894l-50.8938751-50.8938599   l7.0709381-7.0703888l43.822937,43.8234711l91.1813354-91.1818848l7.0704041,7.0704041L232.3200073,310.4303894z" fill="#FFFFFF"/></g></svg>