<?xml version="1.0" ?><svg enable-background="new 0 0 512 512" id="Layer_1" version="1.1" viewBox="0 0 512 512" xml:space="preserve" xmlns="http://www.w3.org/2000/svg" xmlns:xlink="http://www.w3.org/1999/xlink"><g><g><linearGradient gradientUnits="userSpaceOnUse" id="SVGID_1_" x1="-0.0000027" x2="512" y1="256" y2="256"><stop offset="0" style="stop-color:#E24263"/><stop offset="1" style="stop-color:#DD1E47"/></linearGradient><circle cx="256" cy="256" fill="url(#SVGID_1_)" r="256"/><linearGradient gradientUnits="userSpaceOnUse" id="SVGID_2_" x1="42.6666641" x2="469.3333435" y1="256.0005188" y2="256.0005188"><stop offset="0" style="stop-color:#DD1E47"/><stop offset="1" style="stop-color:#E24263"/></linearGradient><path d="M256,469.3338623c-117.6314697,0-213.3333435-95.7023926-213.3333435-213.3333435    c0-117.6314545,95.7018661-213.333313,213.3333435-213.333313c117.636261,0,213.3333435,95.7018661,213.3333435,213.333313    C469.3333435,373.6314697,373.636261,469.3338623,256,469.3338623z" fill="url(#SVGID_2_)"/></g><g><path d="M369.1040039,158.8959961c-19.85495-19.8549347-52.0447998-19.8549347-71.8986816,0l-10.5537415,10.5541382    l71.8982849,71.8981323l10.5541382-10.5536041C388.9578552,210.9407959,388.9578552,178.7514648,369.1040039,158.8959961z" opacity="0.3"/><polygon opacity="0.3" points="144.0058594,312.0943909 146.7706604,381.2282715 215.9042664,383.9946594     227.0542908,372.8437195 155.1562653,300.9455872   "/><rect height="24.0227928" opacity="0.3" transform="matrix(0.7071068 -0.7071068 0.7071068 0.7071068 -116.4993439 261.0395813)" width="165.9662018" x="173.869873" y="259.1355286"/><rect height="28.8301392" opacity="0.3" transform="matrix(0.707117 -0.7070966 0.7070966 0.707117 -105.8307419 235.2783813)" width="165.9655304" x="148.1137848" y="230.9757233"/><rect height="28.8301582" opacity="0.3" transform="matrix(0.707116 -0.7070975 0.7070975 0.707116 -127.167984 286.7905884)" width="165.9657745" x="199.6263885" y="282.4884033"/></g><g><path d="M361.1040039,150.8959961c-19.85495-19.8549347-52.0447998-19.8549347-71.8989258,0    l-10.5534973,10.5541382l71.8982849,71.8981323l10.5541382-10.5536041    C380.9578552,202.9407959,380.9578552,170.7514648,361.1040039,150.8959961z" fill="#FFFFFF"/><polygon fill="#FFFFFF" points="136.0058594,304.0943909 138.7706604,373.2282715 207.9042664,375.9946594     219.0542908,364.8437195 147.1562653,292.9455872   "/><rect fill="#FFFFFF" height="24.0227184" transform="matrix(0.7071068 -0.7071068 0.7071068 0.7071068 -113.1856155 253.0396118)" width="165.9661255" x="165.8699646" y="251.1355743"/><rect fill="#FFFFFF" height="28.8301773" transform="matrix(0.7071151 -0.7070985 0.7070985 0.7071151 -102.5170517 227.2794189)" width="165.9655609" x="140.1137848" y="222.975708"/><rect fill="#FFFFFF" height="28.8301582" transform="matrix(0.707116 -0.7070975 0.7070975 0.707116 -123.8542709 278.790741)" width="165.9657745" x="191.6263885" y="274.4883728"/></g></g></svg>