<?xml version="1.0" ?><svg enable-background="new 0 0 512 512" id="Layer_1" version="1.1" viewBox="0 0 512 512" xml:space="preserve" xmlns="http://www.w3.org/2000/svg" xmlns:xlink="http://www.w3.org/1999/xlink"><g><g><linearGradient gradientUnits="userSpaceOnUse" id="SVGID_1_" x1="0.0000038" x2="512" y1="256" y2="256"><stop offset="0" style="stop-color:#A364AB"/><stop offset="1" style="stop-color:#8C3D96"/></linearGradient><circle cx="256" cy="256" fill="url(#SVGID_1_)" r="256"/><linearGradient gradientUnits="userSpaceOnUse" id="SVGID_2_" x1="42.6666679" x2="469.3333435" y1="256.0005188" y2="256.0005188"><stop offset="0" style="stop-color:#8C3D96"/><stop offset="1" style="stop-color:#A364AB"/></linearGradient><path d="M256,469.3338623c-117.6314697,0-213.3333282-95.7018738-213.3333282-213.3333435    c0-117.6309204,95.7018585-213.333313,213.3333282-213.333313c117.636261,0,213.3333435,95.7024002,213.3333435,213.333313    C469.3333435,373.6319885,373.636261,469.3338623,256,469.3338623z" fill="url(#SVGID_2_)"/></g><path d="M313.7276001,144h-99.4075928L144,214.2714691v99.4085236L214.3200073,384h99.4075928L384,313.6799927   v-99.4085236L313.7276001,144z M314.0209351,306.9216003l-7.0705261,7.0704041l-42.9370728-42.9370728l-42.9364166,42.9370728   l-7.0710449-7.0704041l42.9370575-42.9370728l-42.9370575-42.9370575l7.0710449-7.0704041l42.9364166,42.9370575   l42.9370728-42.9370575l7.0705261,7.0704041l-42.9371948,42.9370575L314.0209351,306.9216003z" opacity="0.3"/><path d="M305.7276001,136h-99.4075928L136,206.2714691v99.4085236L206.3200073,376h99.4075928L376,305.6799927   v-99.4085236L305.7276001,136z M306.0209351,298.9216003l-7.0705261,7.0704041l-42.9370728-42.9370728l-42.9364166,42.9370728   l-7.0710449-7.0704041l42.9370575-42.9370728l-42.9370575-42.9370575l7.0710449-7.0704041l42.9364166,42.9370728   l42.9370728-42.9370728l7.0705261,7.0704041l-42.9371948,42.9370575L306.0209351,298.9216003z" fill="#FFFFFF"/></g></svg>