<?xml version="1.0" ?><svg id="Line" viewBox="0 0 200 200" xmlns="http://www.w3.org/2000/svg"><path d="M134.164,127.26H131.21v-8.9a53.372,53.372,0,1,0-64.372.009v8.889H63.885a1.941,1.941,0,0,0-1.94,1.94v12.453a1.94,1.94,0,0,0,1.94,1.94h.509v10.523a1.941,1.941,0,0,0,1.94,1.94h1.671a32.2,32.2,0,0,0,62.039,0h1.67a1.941,1.941,0,0,0,1.94-1.94V143.593h.51a1.939,1.939,0,0,0,1.939-1.94V129.2A1.94,1.94,0,0,0,134.164,127.26ZM69.92,115.827a49.5,49.5,0,1,1,58.209-.009,1.938,1.938,0,0,0-.8,1.568v9.874H111.083V107.394L123.9,94.37a9.108,9.108,0,1,0-3.494-1.983l-12.649,12.851a1.935,1.935,0,0,0-.557,1.361V127.26H90.845V106.6a1.94,1.94,0,0,0-.557-1.361l-12.65-12.85a9.022,9.022,0,1,0-3.493,1.982l12.821,13.024V127.26H70.718V117.4A1.94,1.94,0,0,0,69.92,115.827Zm51.393-30.133a5.177,5.177,0,1,1,5.177,5.177A5.183,5.183,0,0,1,121.313,85.694ZM71.559,90.871a5.177,5.177,0,1,1,5.176-5.177A5.183,5.183,0,0,1,71.559,90.871ZM65.825,131.14h66.4v8.574h-66.4Zm33.194,44.605a28.133,28.133,0,0,1-26.972-19.689H126A28.539,28.539,0,0,1,99.019,175.745Zm30.755-23.569h-61.5v-8.583h61.5Z"/><path d="M54.231,34.723a1.94,1.94,0,1,0,2.743-2.743L45.632,20.637a1.94,1.94,0,1,0-2.743,2.743Z"/><path d="M153.16,20.637,141.818,31.98a1.94,1.94,0,0,0,2.743,2.743L155.9,23.38a1.94,1.94,0,1,0-2.743-2.743Z"/><path d="M54.231,119.567,42.889,130.909a1.94,1.94,0,0,0,2.743,2.743L56.974,122.31a1.94,1.94,0,0,0-2.743-2.743Z"/><path d="M144.561,119.567a1.94,1.94,0,0,0-2.743,2.743l11.342,11.342a1.94,1.94,0,0,0,2.743-2.743Z"/><path d="M38.861,76.113H22.688a1.94,1.94,0,1,0,0,3.879H38.861a1.94,1.94,0,1,0,0-3.879Z"/><path d="M176.586,76.113H160.413a1.94,1.94,0,1,0,0,3.879h16.173a1.94,1.94,0,1,0,0-3.879Z"/></svg>