<?xml version="1.0" ?><svg enable-background="new 0 0 512 512" id="Layer_1" version="1.1" viewBox="0 0 512 512" xml:space="preserve" xmlns="http://www.w3.org/2000/svg" xmlns:xlink="http://www.w3.org/1999/xlink"><g><g><linearGradient gradientUnits="userSpaceOnUse" id="SVGID_1_" x1="0.0000083" x2="512" y1="256" y2="256"><stop offset="0" style="stop-color:#FFCA05"/><stop offset="1" style="stop-color:#FAAC18"/></linearGradient><circle cx="256" cy="256" fill="url(#SVGID_1_)" r="256"/><linearGradient gradientUnits="userSpaceOnUse" id="SVGID_2_" x1="42.6666756" x2="469.333313" y1="256.0005188" y2="256.0005188"><stop offset="0" style="stop-color:#FAAC18"/><stop offset="1" style="stop-color:#FFCA05"/></linearGradient><path d="M256,469.3338623c-117.6309204,0-213.3333282-95.7018738-213.3333282-213.3333435    c0-117.6309204,95.7024078-213.333313,213.3333282-213.333313c117.636261,0,213.333313,95.7024002,213.333313,213.333313    C469.333313,373.6319885,373.636261,469.3338623,256,469.3338623z" fill="url(#SVGID_2_)"/></g><g><polygon opacity="0.3" points="187.6917267,288.4096069 236.5119934,288.4096069 236.5119934,269.0010681     383.9973145,269.0010681 383.9973145,259.0010681 236.5119934,259.0010681 236.5119934,239.5893402 187.6917267,239.5893402     187.6917267,259.0010681 143.997879,259.0010681 143.997879,269.0010681 187.6917267,269.0010681   "/><polygon opacity="0.3" points="384.002655,346.2565308 323.0762634,346.2565308 323.0762634,326.8447876 274.2554626,326.8447876     274.2554626,346.2565308 143.997879,346.2565308 143.997879,356.2565308 274.2554626,356.2565308 274.2554626,375.6655884     323.0762634,375.6655884 323.0762634,356.2565308 384.002655,356.2565308   "/><polygon opacity="0.3" points="225.0250702,201.1557312 273.8458862,201.1557312 273.8458862,181.7450714     383.9973145,181.7450714 383.9973145,171.7450714 273.8458862,171.7450714 273.8458862,152.3343964 225.0250702,152.3343964     225.0250702,171.7450714 143.997879,171.7450714 143.997879,181.7450714 225.0250702,181.7450714   "/></g><g><polygon fill="#FFFFFF" points="179.6917267,280.4096069 228.5119934,280.4096069 228.5119934,261.0010681     375.9973145,261.0010681 375.9973145,251.0010681 228.5119934,251.0010681 228.5119934,231.5893402 179.6917267,231.5893402     179.6917267,251.0010681 135.997879,251.0010681 135.997879,261.0010681 179.6917267,261.0010681   "/><polygon fill="#FFFFFF" points="376.002655,338.2565308 315.0762634,338.2565308 315.0762634,318.8447876     266.2554626,318.8447876 266.2554626,338.2565308 135.997879,338.2565308 135.997879,348.2565308 266.2554626,348.2565308     266.2554626,367.6655884 315.0762634,367.6655884 315.0762634,348.2565308 376.002655,348.2565308   "/><polygon fill="#FFFFFF" points="217.0250702,193.1557312 265.8458862,193.1557312 265.8458862,173.7450714     375.9973145,173.7450714 375.9973145,163.7450714 265.8458862,163.7450714 265.8458862,144.3343964 217.0250702,144.3343964     217.0250702,163.7450714 135.997879,163.7450714 135.997879,173.7450714 217.0250702,173.7450714   "/></g></g></svg>