<?xml version="1.0" ?><svg enable-background="new 0 0 512 512" id="Layer_1" version="1.1" viewBox="0 0 512 512" xml:space="preserve" xmlns="http://www.w3.org/2000/svg" xmlns:xlink="http://www.w3.org/1999/xlink"><g><g><linearGradient gradientUnits="userSpaceOnUse" id="SVGID_1_" x1="0.0000038" x2="512" y1="256" y2="256"><stop offset="0" style="stop-color:#F67950"/><stop offset="1" style="stop-color:#F15A29"/></linearGradient><circle cx="256" cy="256" fill="url(#SVGID_1_)" r="256"/><linearGradient gradientUnits="userSpaceOnUse" id="SVGID_2_" x1="42.6666679" x2="469.3333435" y1="256.0005188" y2="256.0005188"><stop offset="0" style="stop-color:#F15A29"/><stop offset="1" style="stop-color:#F67950"/></linearGradient><path d="M256,469.3338623c-117.6314697,0-213.3333282-95.7018738-213.3333282-213.3333435    c0-117.6309204,95.7018585-213.333313,213.3333282-213.333313c117.6357422,0,213.3333435,95.7024002,213.3333435,213.333313    C469.3333435,373.6319885,373.6357422,469.3338623,256,469.3338623z" fill="url(#SVGID_2_)"/></g><g><path d="M338.0485229,284.8981323c-25.377594,0-45.9498596,20.5717468-45.9498596,45.9487915    c0,25.3781433,20.5722656,45.9504089,45.9498596,45.9504089s45.9498901-20.5722656,45.9498901-45.9504089    C383.9984131,305.4698792,363.4261169,284.8981323,338.0485229,284.8981323z M366.2266541,335.8490601h-23.1781311v23.1738892h-10    v-23.1738892h-23.1781311v-9.9994507h23.1781311V302.670929h10v23.1786804h23.1781311V335.8490601z" opacity="0.3"/><circle cx="249.5557404" cy="201.0247955" opacity="0.3" r="49.8218651"/><path d="M328.3551941,275.7962646c-5.7872009-6.4992065-12.3093262-12.3317261-19.5285339-17.2384033    c-0.7850647-0.5338745-2.3658752-1.5599976-2.3658752-1.5599976    c-12.7354431,17.6799927-33.4981079,29.2133484-56.9050446,29.2133484c-23.4096069,0-44.174408-11.5354919-56.9088135-29.2197571    c0,0-1.3279877,0.8682861-1.9888,1.3135986c-28.1439972,18.9584045-46.6565247,51.1210938-46.6565247,87.6074829v11.0677185    h144.610672c-4.1440125-7.8085327-6.5151978-16.6959839-6.5151978-26.1359863    C282.0970764,303.305603,302.1146545,280.4069214,328.3551941,275.7962646z" opacity="0.3"/></g><g><path d="M330.0485229,276.8981323c-25.377594,0-45.9498596,20.5717468-45.9498596,45.9487915    c0,25.3781433,20.5722656,45.9504089,45.9498596,45.9504089s45.9498901-20.5722656,45.9498901-45.9504089    C375.9984131,297.4698792,355.4261169,276.8981323,330.0485229,276.8981323z M358.2266541,327.8490601h-23.1781311v23.1738892h-10    v-23.1738892h-23.1781311v-9.9994507h23.1781311V294.670929h10v23.1786804h23.1781311V327.8490601z" fill="#FFFFFF"/><circle cx="241.5557404" cy="193.0247955" fill="#FFFFFF" r="49.8218651"/><path d="M320.3551941,267.7962646c-5.7872009-6.4992065-12.3093262-12.3317261-19.5285339-17.2384033    c-0.7850647-0.5338593-2.3658752-1.5599976-2.3658752-1.5599976    c-12.7354431,17.6799927-33.4981079,29.2133484-56.9050446,29.2133484c-23.4096069,0-44.174408-11.5354919-56.9088135-29.2197418    c0,0-1.3279877,0.8682556-1.9888,1.3135986c-28.1439972,18.9583893-46.6565247,51.1210785-46.6565247,87.6074677v11.0677185    h144.610672c-4.1440125-7.8085327-6.5151978-16.6959839-6.5151978-26.1359863    C274.0970764,295.305603,294.1146545,272.4069214,320.3551941,267.7962646z" fill="#FFFFFF"/></g></g></svg>