<?xml version="1.0" ?><svg enable-background="new 0 0 512 512" id="Layer_1" version="1.1" viewBox="0 0 512 512" xml:space="preserve" xmlns="http://www.w3.org/2000/svg" xmlns:xlink="http://www.w3.org/1999/xlink"><g><g><linearGradient gradientUnits="userSpaceOnUse" id="SVGID_1_" x1="-0.0000027" x2="512" y1="256" y2="256"><stop offset="0" style="stop-color:#8DC63F"/><stop offset="1" style="stop-color:#76B83F"/></linearGradient><circle cx="256" cy="256" fill="url(#SVGID_1_)" r="256"/><linearGradient gradientUnits="userSpaceOnUse" id="SVGID_2_" x1="42.6666641" x2="469.3333435" y1="256.0005188" y2="256.0005188"><stop offset="0" style="stop-color:#76B83F"/><stop offset="1" style="stop-color:#8DC63F"/></linearGradient><path d="M256,469.3338623c-117.631012,0-213.3333435-95.7018738-213.3333435-213.3333435    c0-117.6309204,95.7023239-213.333313,213.3333435-213.333313c117.6362,0,213.3333435,95.7024002,213.3333435,213.333313    C469.3333435,373.6319885,373.6362,469.3338623,256,469.3338623z" fill="url(#SVGID_2_)"/></g><g><polygon opacity="0.3" points="259.1417847,162.5930634 259.1417847,349.3562622 268.8559265,349.3562622     268.8559265,162.5930634 333.7604675,227.4927979 340.6282043,220.624527 263.9988708,144.0005341 187.3743286,220.624527     194.2425842,227.4927979   "/><rect height="9.7136002" opacity="0.3" width="195.0421295" x="166.4788513" y="374.2864075"/></g><g><polygon fill="#FFFFFF" points="251.1417847,154.5930634 251.1417847,341.3562622 260.8559265,341.3562622     260.8559265,154.5930634 325.7604675,219.4927979 332.6282043,212.624527 255.9988556,136.0005341 179.3743286,212.624527     186.2425842,219.4927979   "/><rect fill="#FFFFFF" height="9.7136002" width="195.0421295" x="158.4788513" y="366.2864075"/></g></g></svg>